<?xml version="1.0" encoding="UTF-8" standalone="no"?>
<!DOCTYPE svg PUBLIC "-//W3C//DTD SVG 1.1//EN"
 "http://www.w3.org/Graphics/SVG/1.1/DTD/svg11.dtd">
<!-- Generated by graphviz version 2.47.0 (20210316.0004)
 -->
<!-- Title: dependencies Pages: 1 -->
<svg width="2951pt" height="439pt"
 viewBox="0.00 0.00 2951.00 439.00" xmlns="http://www.w3.org/2000/svg" xmlns:xlink="http://www.w3.org/1999/xlink">
<g id="graph0" class="graph" transform="scale(1 1) rotate(0) translate(4 435)">
<title>dependencies</title>
<polygon fill="white" stroke="transparent" points="-4,4 -4,-435 2947,-435 2947,4 -4,4"/>
<text text-anchor="start" x="1450.51" y="-42.4" font-family="Times-12" font-weight="bold" font-size="14.00">Legend</text>
<polygon fill="#ffffb3" stroke="transparent" points="1237.5,-10 1237.5,-30 1257.5,-30 1257.5,-10 1237.5,-10"/>
<text text-anchor="start" x="1261.13" y="-15.4" font-family="Times-12" font-size="14.00"> &#160;Declarations</text>
<polygon fill="#8dd3c7" stroke="transparent" points="1350.5,-10 1350.5,-30 1370.5,-30 1370.5,-10 1350.5,-10"/>
<text text-anchor="start" x="1374.23" y="-15.4" font-family="Times-12" font-size="14.00"> &#160;Module</text>
<polygon fill="#80b1d3" stroke="transparent" points="1436.5,-10 1436.5,-30 1456.5,-30 1456.5,-10 1436.5,-10"/>
<text text-anchor="start" x="1460.28" y="-15.4" font-family="Times-12" font-size="14.00"> &#160;Bootstrap</text>
<polygon fill="#fdb462" stroke="transparent" points="1533.5,-10 1533.5,-30 1553.5,-30 1553.5,-10 1533.5,-10"/>
<text text-anchor="start" x="1557.17" y="-15.4" font-family="Times-12" font-size="14.00"> &#160;Providers</text>
<polygon fill="#fb8072" stroke="transparent" points="1629.5,-10 1629.5,-30 1649.5,-30 1649.5,-10 1629.5,-10"/>
<text text-anchor="start" x="1653.23" y="-15.4" font-family="Times-12" font-size="14.00"> &#160;Exports</text>
<g id="clust1" class="cluster">
<title>cluster_AppModule</title>
<polygon fill="none" stroke="black" stroke-dasharray="1,5" points="1529,-146 1529,-423 2303,-423 2303,-146 1529,-146"/>
</g>
<g id="clust3" class="cluster">
<title>cluster_AppModule_imports</title>
<polygon fill="none" stroke="black" points="1675,-154 1675,-358 2295,-358 2295,-154 1675,-154"/>
</g>
<g id="clust6" class="cluster">
<title>cluster_AppModule_providers</title>
<polygon fill="none" stroke="black" points="1537,-306 1537,-358 1667,-358 1667,-306 1537,-306"/>
</g>
<g id="clust7" class="cluster">
<title>cluster_AuthModule</title>
<polygon fill="none" stroke="black" stroke-dasharray="1,5" points="697,-70 697,-138 1978,-138 1978,-70 697,-70"/>
</g>
<g id="clust10" class="cluster">
<title>cluster_AuthModule_exports</title>
<polygon fill="none" stroke="black" points="1732,-78 1732,-130 1970,-130 1970,-78 1732,-78"/>
</g>
<g id="clust12" class="cluster">
<title>cluster_AuthModule_providers</title>
<polygon fill="none" stroke="black" points="705,-78 705,-130 1724,-130 1724,-78 705,-78"/>
</g>
<g id="clust13" class="cluster">
<title>cluster_MailModule</title>
<polygon fill="none" stroke="black" stroke-dasharray="1,5" points="2311,-222 2311,-290 2571,-290 2571,-222 2311,-222"/>
</g>
<g id="clust16" class="cluster">
<title>cluster_MailModule_exports</title>
<polygon fill="none" stroke="black" points="2459,-230 2459,-282 2563,-282 2563,-230 2459,-230"/>
</g>
<g id="clust18" class="cluster">
<title>cluster_MailModule_providers</title>
<polygon fill="none" stroke="black" points="2319,-230 2319,-282 2451,-282 2451,-230 2319,-230"/>
</g>
<g id="clust19" class="cluster">
<title>cluster_MetaOptionsModule</title>
<polygon fill="none" stroke="black" stroke-dasharray="1,5" points="1986,-70 1986,-138 2198,-138 2198,-70 1986,-70"/>
</g>
<g id="clust24" class="cluster">
<title>cluster_MetaOptionsModule_providers</title>
<polygon fill="none" stroke="black" points="1994,-78 1994,-130 2190,-130 2190,-78 1994,-78"/>
</g>
<g id="clust25" class="cluster">
<title>cluster_PaginationModule</title>
<polygon fill="none" stroke="black" stroke-dasharray="1,5" points="2579,-222 2579,-290 2935,-290 2935,-222 2579,-222"/>
</g>
<g id="clust28" class="cluster">
<title>cluster_PaginationModule_exports</title>
<polygon fill="none" stroke="black" points="2783,-230 2783,-282 2927,-282 2927,-230 2783,-230"/>
</g>
<g id="clust30" class="cluster">
<title>cluster_PaginationModule_providers</title>
<polygon fill="none" stroke="black" points="2587,-230 2587,-282 2775,-282 2775,-230 2587,-230"/>
</g>
<g id="clust31" class="cluster">
<title>cluster_PostsModule</title>
<polygon fill="none" stroke="black" stroke-dasharray="1,5" points="1178,-222 1178,-290 1521,-290 1521,-222 1178,-222"/>
</g>
<g id="clust36" class="cluster">
<title>cluster_PostsModule_providers</title>
<polygon fill="none" stroke="black" points="1186,-230 1186,-282 1513,-282 1513,-230 1186,-230"/>
</g>
<g id="clust37" class="cluster">
<title>cluster_TagsModule</title>
<polygon fill="none" stroke="black" stroke-dasharray="1,5" points="2311,-298 2311,-366 2573,-366 2573,-298 2311,-298"/>
</g>
<g id="clust40" class="cluster">
<title>cluster_TagsModule_exports</title>
<polygon fill="none" stroke="black" points="2461,-306 2461,-358 2565,-358 2565,-306 2461,-306"/>
</g>
<g id="clust42" class="cluster">
<title>cluster_TagsModule_providers</title>
<polygon fill="none" stroke="black" points="2319,-306 2319,-358 2453,-358 2453,-306 2319,-306"/>
</g>
<g id="clust43" class="cluster">
<title>cluster_UploadsModule</title>
<polygon fill="none" stroke="black" stroke-dasharray="1,5" points="2206,-70 2206,-138 2602,-138 2602,-70 2206,-70"/>
</g>
<g id="clust48" class="cluster">
<title>cluster_UploadsModule_providers</title>
<polygon fill="none" stroke="black" points="2214,-78 2214,-130 2594,-130 2594,-78 2214,-78"/>
</g>
<g id="clust49" class="cluster">
<title>cluster_UsersModule</title>
<polygon fill="none" stroke="black" stroke-dasharray="1,5" points="8,-146 8,-214 1521,-214 1521,-146 8,-146"/>
</g>
<g id="clust52" class="cluster">
<title>cluster_UsersModule_exports</title>
<polygon fill="none" stroke="black" points="1403,-154 1403,-206 1513,-206 1513,-154 1403,-154"/>
</g>
<g id="clust54" class="cluster">
<title>cluster_UsersModule_providers</title>
<polygon fill="none" stroke="black" points="16,-154 16,-206 1395,-206 1395,-154 16,-154"/>
</g>
<!-- AuthModule -->
<g id="node1" class="node">
<title>AuthModule</title>
<polygon fill="#8dd3c7" stroke="black" points="1770.55,-198 1767.55,-202 1746.55,-202 1743.55,-198 1683.45,-198 1683.45,-162 1770.55,-162 1770.55,-198"/>
<text text-anchor="middle" x="1727" y="-175.8" font-family="Times,serif" font-size="14.00">AuthModule</text>
</g>
<!-- AppModule -->
<g id="node9" class="node">
<title>AppModule</title>
<polygon fill="#8dd3c7" stroke="black" points="1959.66,-415 1956.66,-419 1935.66,-419 1932.66,-415 1876.34,-415 1876.34,-379 1959.66,-379 1959.66,-415"/>
<text text-anchor="middle" x="1918" y="-392.8" font-family="Times,serif" font-size="14.00">AppModule</text>
</g>
<!-- AuthModule&#45;&gt;AppModule -->
<g id="edge1" class="edge">
<title>AuthModule&#45;&gt;AppModule</title>
<path fill="none" stroke="black" d="M1761.05,-198.04C1761.05,-205.75 1761.05,-213 1761.05,-213 1761.05,-213 1906.69,-213 1906.69,-213 1906.69,-213 1906.69,-368.68 1906.69,-368.68"/>
<polygon fill="black" stroke="black" points="1903.2,-368.68 1906.69,-378.68 1910.2,-368.68 1903.2,-368.68"/>
</g>
<!-- AuthService  -->
<g id="node11" class="node">
<title>AuthService </title>
<polygon fill="#fb8072" stroke="black" points="1961.98,-122 1872.02,-122 1872.02,-86 1961.98,-86 1961.98,-122"/>
<text text-anchor="middle" x="1917" y="-99.8" font-family="Times,serif" font-size="14.00">AuthService </text>
</g>
<!-- AuthModule&#45;&gt;AuthService  -->
<g id="edge10" class="edge">
<title>AuthModule&#45;&gt;AuthService </title>
<path fill="none" stroke="black" stroke-dasharray="5,2" d="M1760.45,-161.89C1760.45,-152.1 1760.45,-142 1760.45,-142 1760.45,-142 1888.62,-142 1888.62,-142 1888.62,-142 1888.62,-132.11 1888.62,-132.11"/>
<polygon fill="black" stroke="black" points="1892.12,-132.11 1888.62,-122.11 1885.12,-132.11 1892.12,-132.11"/>
</g>
<!-- HashingProvider  -->
<g id="node12" class="node">
<title>HashingProvider </title>
<polygon fill="#fb8072" stroke="black" points="1854.37,-122 1739.63,-122 1739.63,-86 1854.37,-86 1854.37,-122"/>
<text text-anchor="middle" x="1797" y="-99.8" font-family="Times,serif" font-size="14.00">HashingProvider </text>
</g>
<!-- AuthModule&#45;&gt;HashingProvider  -->
<g id="edge11" class="edge">
<title>AuthModule&#45;&gt;HashingProvider </title>
<path fill="none" stroke="black" stroke-dasharray="5,2" d="M1750.14,-161.99C1750.14,-161.99 1750.14,-132.15 1750.14,-132.15"/>
<polygon fill="black" stroke="black" points="1753.64,-132.15 1750.14,-122.15 1746.64,-132.15 1753.64,-132.15"/>
</g>
<!-- MailModule -->
<g id="node2" class="node">
<title>MailModule</title>
<polygon fill="#8dd3c7" stroke="black" points="2286.99,-198 2283.99,-202 2262.99,-202 2259.99,-198 2201.01,-198 2201.01,-162 2286.99,-162 2286.99,-198"/>
<text text-anchor="middle" x="2244" y="-175.8" font-family="Times,serif" font-size="14.00">MailModule</text>
</g>
<!-- MailModule&#45;&gt;AppModule -->
<g id="edge2" class="edge">
<title>MailModule&#45;&gt;AppModule</title>
<path fill="none" stroke="black" d="M2244,-198.25C2244,-251.51 2244,-403 2244,-403 2244,-403 1969.95,-403 1969.95,-403"/>
<polygon fill="black" stroke="black" points="1969.95,-399.5 1959.95,-403 1969.95,-406.5 1969.95,-399.5"/>
</g>
<!-- MailService  -->
<g id="node18" class="node">
<title>MailService </title>
<polygon fill="#fb8072" stroke="black" points="2554.92,-274 2467.08,-274 2467.08,-238 2554.92,-238 2554.92,-274"/>
<text text-anchor="middle" x="2511" y="-251.8" font-family="Times,serif" font-size="14.00">MailService </text>
</g>
<!-- MailModule&#45;&gt;MailService  -->
<g id="edge17" class="edge">
<title>MailModule&#45;&gt;MailService </title>
<path fill="none" stroke="black" stroke-dasharray="5,2" d="M2287.19,-174C2362.76,-174 2511,-174 2511,-174 2511,-174 2511,-227.8 2511,-227.8"/>
<polygon fill="black" stroke="black" points="2507.5,-227.8 2511,-237.8 2514.5,-227.8 2507.5,-227.8"/>
</g>
<!-- MetaOptionsModule -->
<g id="node3" class="node">
<title>MetaOptionsModule</title>
<polygon fill="#8dd3c7" stroke="black" points="1921.15,-198 1918.15,-202 1897.15,-202 1894.15,-198 1788.85,-198 1788.85,-162 1921.15,-162 1921.15,-198"/>
<text text-anchor="middle" x="1855" y="-175.8" font-family="Times,serif" font-size="14.00">MetaOptionsModule</text>
</g>
<!-- MetaOptionsModule&#45;&gt;AppModule -->
<g id="edge3" class="edge">
<title>MetaOptionsModule&#45;&gt;AppModule</title>
<path fill="none" stroke="black" d="M1914.01,-198.13C1914.01,-198.13 1914.01,-368.77 1914.01,-368.77"/>
<polygon fill="black" stroke="black" points="1910.51,-368.77 1914.01,-378.77 1917.51,-368.77 1910.51,-368.77"/>
</g>
<!-- PaginationModule -->
<g id="node4" class="node">
<title>PaginationModule</title>
<polygon fill="#8dd3c7" stroke="black" points="2182.93,-198 2179.93,-202 2158.93,-202 2155.93,-198 2063.07,-198 2063.07,-162 2182.93,-162 2182.93,-198"/>
<text text-anchor="middle" x="2123" y="-175.8" font-family="Times,serif" font-size="14.00">PaginationModule</text>
</g>
<!-- PostsModule -->
<g id="node5" class="node">
<title>PostsModule</title>
<polygon fill="#8dd3c7" stroke="black" points="1794.61,-350 1791.61,-354 1770.61,-354 1767.61,-350 1705.39,-350 1705.39,-314 1794.61,-314 1794.61,-350"/>
<text text-anchor="middle" x="1750" y="-327.8" font-family="Times,serif" font-size="14.00">PostsModule</text>
</g>
<!-- PaginationModule&#45;&gt;PostsModule -->
<g id="edge22" class="edge">
<title>PaginationModule&#45;&gt;PostsModule</title>
<path fill="none" stroke="black" d="M2142.91,-198.03C2142.91,-238.3 2142.91,-332 2142.91,-332 2142.91,-332 1804.69,-332 1804.69,-332"/>
<polygon fill="black" stroke="black" points="1804.69,-328.5 1794.69,-332 1804.69,-335.5 1804.69,-328.5"/>
</g>
<!-- UsersModule -->
<g id="node8" class="node">
<title>UsersModule</title>
<polygon fill="#8dd3c7" stroke="black" points="1774.92,-274 1771.92,-278 1750.92,-278 1747.92,-274 1683.08,-274 1683.08,-238 1774.92,-238 1774.92,-274"/>
<text text-anchor="middle" x="1729" y="-251.8" font-family="Times,serif" font-size="14.00">UsersModule</text>
</g>
<!-- PaginationModule&#45;&gt;UsersModule -->
<g id="edge31" class="edge">
<title>PaginationModule&#45;&gt;UsersModule</title>
<path fill="none" stroke="black" d="M2083.19,-198.2C2083.19,-204.03 2083.19,-209 2083.19,-209 2083.19,-209 1751.33,-209 1751.33,-209 1751.33,-209 1751.33,-227.96 1751.33,-227.96"/>
<polygon fill="black" stroke="black" points="1747.83,-227.96 1751.33,-237.96 1754.83,-227.96 1747.83,-227.96"/>
</g>
<!-- PaginationModule&#45;&gt;AppModule -->
<g id="edge4" class="edge">
<title>PaginationModule&#45;&gt;AppModule</title>
<path fill="none" stroke="black" d="M2162.81,-198.36C2162.81,-249.69 2162.81,-391 2162.81,-391 2162.81,-391 1969.81,-391 1969.81,-391"/>
<polygon fill="black" stroke="black" points="1969.81,-387.5 1959.81,-391 1969.81,-394.5 1969.81,-387.5"/>
</g>
<!-- PaginationProvider  -->
<g id="node21" class="node">
<title>PaginationProvider </title>
<polygon fill="#fb8072" stroke="black" points="2918.59,-274 2791.41,-274 2791.41,-238 2918.59,-238 2918.59,-274"/>
<text text-anchor="middle" x="2855" y="-251.8" font-family="Times,serif" font-size="14.00">PaginationProvider </text>
</g>
<!-- PaginationModule&#45;&gt;PaginationProvider  -->
<g id="edge20" class="edge">
<title>PaginationModule&#45;&gt;PaginationProvider </title>
<path fill="none" stroke="black" stroke-dasharray="5,2" d="M2103.09,-198.17C2103.09,-200.45 2103.09,-202 2103.09,-202 2103.09,-202 2855,-202 2855,-202 2855,-202 2855,-227.72 2855,-227.72"/>
<polygon fill="black" stroke="black" points="2851.5,-227.72 2855,-237.72 2858.5,-227.72 2851.5,-227.72"/>
</g>
<!-- PostsModule&#45;&gt;AppModule -->
<g id="edge5" class="edge">
<title>PostsModule&#45;&gt;AppModule</title>
<path fill="none" stroke="black" d="M1794.73,-341C1834.18,-341 1885.46,-341 1885.46,-341 1885.46,-341 1885.46,-368.97 1885.46,-368.97"/>
<polygon fill="black" stroke="black" points="1881.96,-368.97 1885.46,-378.97 1888.96,-368.97 1881.96,-368.97"/>
</g>
<!-- TagsModule -->
<g id="node6" class="node">
<title>TagsModule</title>
<polygon fill="#8dd3c7" stroke="black" points="1899.26,-274 1896.26,-278 1875.26,-278 1872.26,-274 1812.74,-274 1812.74,-238 1899.26,-238 1899.26,-274"/>
<text text-anchor="middle" x="1856" y="-251.8" font-family="Times,serif" font-size="14.00">TagsModule</text>
</g>
<!-- TagsModule&#45;&gt;PostsModule -->
<g id="edge23" class="edge">
<title>TagsModule&#45;&gt;PostsModule</title>
<path fill="none" stroke="black" d="M1812.35,-256C1796.17,-256 1781.69,-256 1781.69,-256 1781.69,-256 1781.69,-303.99 1781.69,-303.99"/>
<polygon fill="black" stroke="black" points="1778.19,-303.99 1781.69,-313.99 1785.19,-303.99 1778.19,-303.99"/>
</g>
<!-- TagsModule&#45;&gt;AppModule -->
<g id="edge6" class="edge">
<title>TagsModule&#45;&gt;AppModule</title>
<path fill="none" stroke="black" d="M1890.1,-274.14C1890.1,-274.14 1890.1,-368.93 1890.1,-368.93"/>
<polygon fill="black" stroke="black" points="1886.6,-368.92 1890.1,-378.93 1893.6,-368.93 1886.6,-368.92"/>
</g>
<!-- TagsService  -->
<g id="node25" class="node">
<title>TagsService </title>
<polygon fill="#fb8072" stroke="black" points="2557.19,-350 2468.81,-350 2468.81,-314 2557.19,-314 2557.19,-350"/>
<text text-anchor="middle" x="2513" y="-327.8" font-family="Times,serif" font-size="14.00">TagsService </text>
</g>
<!-- TagsModule&#45;&gt;TagsService  -->
<g id="edge27" class="edge">
<title>TagsModule&#45;&gt;TagsService </title>
<path fill="none" stroke="black" stroke-dasharray="5,2" d="M1880.81,-274.24C1880.81,-281.43 1880.81,-288 1880.81,-288 1880.81,-288 2511.81,-288 2511.81,-288 2511.81,-288 2511.81,-303.85 2511.81,-303.85"/>
<polygon fill="black" stroke="black" points="2508.31,-303.85 2511.81,-313.85 2515.31,-303.85 2508.31,-303.85"/>
</g>
<!-- UploadsModule -->
<g id="node7" class="node">
<title>UploadsModule</title>
<polygon fill="#8dd3c7" stroke="black" points="2045.21,-198 2042.21,-202 2021.21,-202 2018.21,-198 1938.79,-198 1938.79,-162 2045.21,-162 2045.21,-198"/>
<text text-anchor="middle" x="1992" y="-175.8" font-family="Times,serif" font-size="14.00">UploadsModule</text>
</g>
<!-- UploadsModule&#45;&gt;AppModule -->
<g id="edge7" class="edge">
<title>UploadsModule&#45;&gt;AppModule</title>
<path fill="none" stroke="black" d="M1949.36,-198.13C1949.36,-198.13 1949.36,-368.77 1949.36,-368.77"/>
<polygon fill="black" stroke="black" points="1945.86,-368.77 1949.36,-378.77 1952.86,-368.77 1945.86,-368.77"/>
</g>
<!-- UsersModule&#45;&gt;PostsModule -->
<g id="edge24" class="edge">
<title>UsersModule&#45;&gt;PostsModule</title>
<path fill="none" stroke="black" d="M1751.62,-274.01C1751.62,-274.01 1751.62,-303.85 1751.62,-303.85"/>
<polygon fill="black" stroke="black" points="1748.12,-303.85 1751.62,-313.85 1755.12,-303.85 1748.12,-303.85"/>
</g>
<!-- UsersModule&#45;&gt;AppModule -->
<g id="edge8" class="edge">
<title>UsersModule&#45;&gt;AppModule</title>
<path fill="none" stroke="black" d="M1694.37,-274.21C1694.37,-311.06 1694.37,-391 1694.37,-391 1694.37,-391 1866.2,-391 1866.2,-391"/>
<polygon fill="black" stroke="black" points="1866.2,-394.5 1876.2,-391 1866.2,-387.5 1866.2,-394.5"/>
</g>
<!-- UsersService  -->
<g id="node29" class="node">
<title>UsersService </title>
<polygon fill="#fb8072" stroke="black" points="1504.85,-198 1411.15,-198 1411.15,-162 1504.85,-162 1504.85,-198"/>
<text text-anchor="middle" x="1458" y="-175.8" font-family="Times,serif" font-size="14.00">UsersService </text>
</g>
<!-- UsersModule&#45;&gt;UsersService  -->
<g id="edge32" class="edge">
<title>UsersModule&#45;&gt;UsersService </title>
<path fill="none" stroke="black" stroke-dasharray="5,2" d="M1682.99,-250C1678.19,-250 1675.02,-250 1675.02,-250 1675.02,-250 1675.02,-186 1675.02,-186 1675.02,-186 1514.82,-186 1514.82,-186"/>
<polygon fill="black" stroke="black" points="1514.82,-182.5 1504.82,-186 1514.82,-189.5 1514.82,-182.5"/>
</g>
<!-- AppService -->
<g id="node10" class="node">
<title>AppService</title>
<ellipse fill="#fdb462" stroke="black" cx="1602" cy="-332" rx="56.74" ry="18"/>
<text text-anchor="middle" x="1602" y="-327.8" font-family="Times,serif" font-size="14.00">AppService</text>
</g>
<!-- AppService&#45;&gt;AppModule -->
<g id="edge9" class="edge">
<title>AppService&#45;&gt;AppModule</title>
<path fill="none" stroke="black" d="M1602,-350.28C1602,-371.32 1602,-403 1602,-403 1602,-403 1866.04,-403 1866.04,-403"/>
<polygon fill="black" stroke="black" points="1866.04,-406.5 1876.04,-403 1866.04,-399.5 1866.04,-406.5"/>
</g>
<!-- AuthService -->
<g id="node13" class="node">
<title>AuthService</title>
<ellipse fill="#fdb462" stroke="black" cx="1657" cy="-104" rx="59.11" ry="18"/>
<text text-anchor="middle" x="1657" y="-99.8" font-family="Times,serif" font-size="14.00">AuthService</text>
</g>
<!-- AuthService&#45;&gt;AuthModule -->
<g id="edge12" class="edge">
<title>AuthService&#45;&gt;AuthModule</title>
<path fill="none" stroke="black" d="M1709.69,-112.42C1709.69,-112.42 1709.69,-151.73 1709.69,-151.73"/>
<polygon fill="black" stroke="black" points="1706.19,-151.73 1709.69,-161.73 1713.19,-151.73 1706.19,-151.73"/>
</g>
<!-- GenerateTokensProvider -->
<g id="node14" class="node">
<title>GenerateTokensProvider</title>
<ellipse fill="#fdb462" stroke="black" cx="1472" cy="-104" rx="107.63" ry="18"/>
<text text-anchor="middle" x="1472" y="-99.8" font-family="Times,serif" font-size="14.00">GenerateTokensProvider</text>
</g>
<!-- GenerateTokensProvider&#45;&gt;AuthModule -->
<g id="edge13" class="edge">
<title>GenerateTokensProvider&#45;&gt;AuthModule</title>
<path fill="none" stroke="black" d="M1562.47,-114.03C1562.47,-133.38 1562.47,-174 1562.47,-174 1562.47,-174 1673.34,-174 1673.34,-174"/>
<polygon fill="black" stroke="black" points="1673.34,-177.5 1683.34,-174 1673.34,-170.5 1673.34,-177.5"/>
</g>
<!-- GoogleAuthenticationService -->
<g id="node15" class="node">
<title>GoogleAuthenticationService</title>
<ellipse fill="#fdb462" stroke="black" cx="1221" cy="-104" rx="125.62" ry="18"/>
<text text-anchor="middle" x="1221" y="-99.8" font-family="Times,serif" font-size="14.00">GoogleAuthenticationService</text>
</g>
<!-- GoogleAuthenticationService&#45;&gt;AuthModule -->
<g id="edge14" class="edge">
<title>GoogleAuthenticationService&#45;&gt;AuthModule</title>
<path fill="none" stroke="black" d="M1250.83,-121.67C1250.83,-124.75 1250.83,-127 1250.83,-127 1250.83,-127 1703.07,-127 1703.07,-127 1703.07,-127 1703.07,-151.76 1703.07,-151.76"/>
<polygon fill="black" stroke="black" points="1699.57,-151.76 1703.07,-161.76 1706.57,-151.76 1699.57,-151.76"/>
</g>
<!-- RefreshTokensProvider -->
<g id="node16" class="node">
<title>RefreshTokensProvider</title>
<ellipse fill="#fdb462" stroke="black" cx="974" cy="-104" rx="102.99" ry="18"/>
<text text-anchor="middle" x="974" y="-99.8" font-family="Times,serif" font-size="14.00">RefreshTokensProvider</text>
</g>
<!-- RefreshTokensProvider&#45;&gt;AuthModule -->
<g id="edge15" class="edge">
<title>RefreshTokensProvider&#45;&gt;AuthModule</title>
<path fill="none" stroke="black" d="M1019.01,-120.29C1019.01,-126.45 1019.01,-132 1019.01,-132 1019.01,-132 1696.46,-132 1696.46,-132 1696.46,-132 1696.46,-151.85 1696.46,-151.85"/>
<polygon fill="black" stroke="black" points="1692.96,-151.85 1696.46,-161.85 1699.96,-151.85 1692.96,-151.85"/>
</g>
<!-- SignInProvider -->
<g id="node17" class="node">
<title>SignInProvider</title>
<ellipse fill="#fdb462" stroke="black" cx="783" cy="-104" rx="70.08" ry="18"/>
<text text-anchor="middle" x="783" y="-99.8" font-family="Times,serif" font-size="14.00">SignInProvider</text>
</g>
<!-- SignInProvider&#45;&gt;AuthModule -->
<g id="edge16" class="edge">
<title>SignInProvider&#45;&gt;AuthModule</title>
<path fill="none" stroke="black" d="M783,-122.04C783,-129.75 783,-137 783,-137 783,-137 1689.84,-137 1689.84,-137 1689.84,-137 1689.84,-151.51 1689.84,-151.51"/>
<polygon fill="black" stroke="black" points="1686.34,-151.51 1689.84,-161.51 1693.34,-151.51 1686.34,-151.51"/>
</g>
<!-- MailService -->
<g id="node19" class="node">
<title>MailService</title>
<ellipse fill="#fdb462" stroke="black" cx="2385" cy="-256" rx="58.46" ry="18"/>
<text text-anchor="middle" x="2385" y="-251.8" font-family="Times,serif" font-size="14.00">MailService</text>
</g>
<!-- MailService&#45;&gt;MailModule -->
<g id="edge18" class="edge">
<title>MailService&#45;&gt;MailModule</title>
<path fill="none" stroke="black" d="M2346.47,-242.5C2346.47,-222.16 2346.47,-186 2346.47,-186 2346.47,-186 2297.16,-186 2297.16,-186"/>
<polygon fill="black" stroke="black" points="2297.16,-182.5 2287.16,-186 2297.16,-189.5 2297.16,-182.5"/>
</g>
<!-- MetaOptionsService -->
<g id="node20" class="node">
<title>MetaOptionsService</title>
<ellipse fill="#fdb462" stroke="black" cx="2092" cy="-104" rx="90.33" ry="18"/>
<text text-anchor="middle" x="2092" y="-99.8" font-family="Times,serif" font-size="14.00">MetaOptionsService</text>
</g>
<!-- MetaOptionsService&#45;&gt;MetaOptionsModule -->
<g id="edge19" class="edge">
<title>MetaOptionsService&#45;&gt;MetaOptionsModule</title>
<path fill="none" stroke="black" d="M2012.47,-112.7C2012.47,-125.27 2012.47,-147 2012.47,-147 2012.47,-147 1904.97,-147 1904.97,-147 1904.97,-147 1904.97,-151.96 1904.97,-151.96"/>
<polygon fill="black" stroke="black" points="1901.47,-151.96 1904.97,-161.96 1908.47,-151.96 1901.47,-151.96"/>
</g>
<!-- PaginationProvider -->
<g id="node22" class="node">
<title>PaginationProvider</title>
<ellipse fill="#fdb462" stroke="black" cx="2681" cy="-256" rx="85.69" ry="18"/>
<text text-anchor="middle" x="2681" y="-251.8" font-family="Times,serif" font-size="14.00">PaginationProvider</text>
</g>
<!-- PaginationProvider&#45;&gt;PaginationModule -->
<g id="edge21" class="edge">
<title>PaginationProvider&#45;&gt;PaginationModule</title>
<path fill="none" stroke="black" d="M2681,-237.95C2681,-223.63 2681,-206 2681,-206 2681,-206 2123,-206 2123,-206 2123,-206 2123,-205.21 2123,-205.21"/>
<polygon fill="black" stroke="black" points="2126.5,-208.06 2123,-198.06 2119.5,-208.06 2126.5,-208.06"/>
</g>
<!-- CreatePostProvider -->
<g id="node23" class="node">
<title>CreatePostProvider</title>
<ellipse fill="#fdb462" stroke="black" cx="1419" cy="-256" rx="86.25" ry="18"/>
<text text-anchor="middle" x="1419" y="-251.8" font-family="Times,serif" font-size="14.00">CreatePostProvider</text>
</g>
<!-- CreatePostProvider&#45;&gt;PostsModule -->
<g id="edge25" class="edge">
<title>CreatePostProvider&#45;&gt;PostsModule</title>
<path fill="none" stroke="black" d="M1500.49,-262C1572.72,-262 1666.82,-262 1666.82,-262 1666.82,-262 1666.82,-332 1666.82,-332 1666.82,-332 1695,-332 1695,-332"/>
<polygon fill="black" stroke="black" points="1695,-335.5 1705,-332 1695,-328.5 1695,-335.5"/>
</g>
<!-- PostsService -->
<g id="node24" class="node">
<title>PostsService</title>
<ellipse fill="#fdb462" stroke="black" cx="1254" cy="-256" rx="60.27" ry="18"/>
<text text-anchor="middle" x="1254" y="-251.8" font-family="Times,serif" font-size="14.00">PostsService</text>
</g>
<!-- PostsService&#45;&gt;PostsModule -->
<g id="edge26" class="edge">
<title>PostsService&#45;&gt;PostsModule</title>
<path fill="none" stroke="black" d="M1254,-274.04C1254,-286.56 1254,-301 1254,-301 1254,-301 1728.53,-301 1728.53,-301 1728.53,-301 1728.53,-303.97 1728.53,-303.97"/>
<polygon fill="black" stroke="black" points="1725.03,-303.97 1728.53,-313.97 1732.03,-303.97 1725.03,-303.97"/>
</g>
<!-- TagsService -->
<g id="node26" class="node">
<title>TagsService</title>
<ellipse fill="#fdb462" stroke="black" cx="2386" cy="-332" rx="58.53" ry="18"/>
<text text-anchor="middle" x="2386" y="-327.8" font-family="Times,serif" font-size="14.00">TagsService</text>
</g>
<!-- TagsService&#45;&gt;TagsModule -->
<g id="edge28" class="edge">
<title>TagsService&#45;&gt;TagsModule</title>
<path fill="none" stroke="black" d="M2334.82,-323C2208.99,-323 1894.74,-323 1894.74,-323 1894.74,-323 1894.74,-284.31 1894.74,-284.31"/>
<polygon fill="black" stroke="black" points="1898.24,-284.31 1894.74,-274.31 1891.24,-284.31 1898.24,-284.31"/>
</g>
<!-- UploadToAwsProvider -->
<g id="node27" class="node">
<title>UploadToAwsProvider</title>
<ellipse fill="#fdb462" stroke="black" cx="2485" cy="-104" rx="101.29" ry="18"/>
<text text-anchor="middle" x="2485" y="-99.8" font-family="Times,serif" font-size="14.00">UploadToAwsProvider</text>
</g>
<!-- UploadToAwsProvider&#45;&gt;UploadsModule -->
<g id="edge29" class="edge">
<title>UploadToAwsProvider&#45;&gt;UploadsModule</title>
<path fill="none" stroke="black" d="M2413.54,-116.83C2413.54,-132.52 2413.54,-157 2413.54,-157 2413.54,-157 2034.22,-157 2034.22,-157 2034.22,-157 2034.22,-157.49 2034.22,-157.49"/>
<polygon fill="black" stroke="black" points="2030.72,-151.88 2034.22,-161.88 2037.72,-151.88 2030.72,-151.88"/>
</g>
<!-- UploadsService -->
<g id="node28" class="node">
<title>UploadsService</title>
<ellipse fill="#fdb462" stroke="black" cx="2294" cy="-104" rx="72.35" ry="18"/>
<text text-anchor="middle" x="2294" y="-99.8" font-family="Times,serif" font-size="14.00">UploadsService</text>
</g>
<!-- UploadsService&#45;&gt;UploadsModule -->
<g id="edge30" class="edge">
<title>UploadsService&#45;&gt;UploadsModule</title>
<path fill="none" stroke="black" d="M2254.41,-119.19C2254.41,-133.25 2254.41,-152 2254.41,-152 2254.41,-152 2023.35,-152 2023.35,-152 2023.35,-152 2023.35,-152.98 2023.35,-152.98"/>
<polygon fill="black" stroke="black" points="2019.85,-151.79 2023.35,-161.79 2026.85,-151.79 2019.85,-151.79"/>
</g>
<!-- CreateGoogleUserProvider -->
<g id="node30" class="node">
<title>CreateGoogleUserProvider</title>
<ellipse fill="#fdb462" stroke="black" cx="1271" cy="-180" rx="116.29" ry="18"/>
<text text-anchor="middle" x="1271" y="-175.8" font-family="Times,serif" font-size="14.00">CreateGoogleUserProvider</text>
</g>
<!-- CreateGoogleUserProvider&#45;&gt;UsersModule -->
<g id="edge33" class="edge">
<title>CreateGoogleUserProvider&#45;&gt;UsersModule</title>
<path fill="none" stroke="black" d="M1360.01,-191.71C1360.01,-202.55 1360.01,-217 1360.01,-217 1360.01,-217 1741.61,-217 1741.61,-217 1741.61,-217 1741.61,-227.87 1741.61,-227.87"/>
<polygon fill="black" stroke="black" points="1738.11,-227.87 1741.61,-237.87 1745.11,-227.87 1738.11,-227.87"/>
</g>
<!-- CreateUserProvider -->
<g id="node31" class="node">
<title>CreateUserProvider</title>
<ellipse fill="#fdb462" stroke="black" cx="1049" cy="-180" rx="87.94" ry="18"/>
<text text-anchor="middle" x="1049" y="-175.8" font-family="Times,serif" font-size="14.00">CreateUserProvider</text>
</g>
<!-- CreateUserProvider&#45;&gt;UsersModule -->
<g id="edge34" class="edge">
<title>CreateUserProvider&#45;&gt;UsersModule</title>
<path fill="none" stroke="black" d="M1049,-198.13C1049,-208.71 1049,-220 1049,-220 1049,-220 1731.89,-220 1731.89,-220 1731.89,-220 1731.89,-227.58 1731.89,-227.58"/>
<polygon fill="black" stroke="black" points="1728.39,-227.58 1731.89,-237.58 1735.39,-227.58 1728.39,-227.58"/>
</g>
<!-- FindOneByGoogleIdProvider -->
<g id="node32" class="node">
<title>FindOneByGoogleIdProvider</title>
<ellipse fill="#fdb462" stroke="black" cx="817" cy="-180" rx="125.65" ry="18"/>
<text text-anchor="middle" x="817" y="-175.8" font-family="Times,serif" font-size="14.00">FindOneByGoogleIdProvider</text>
</g>
<!-- FindOneByGoogleIdProvider&#45;&gt;UsersModule -->
<g id="edge35" class="edge">
<title>FindOneByGoogleIdProvider&#45;&gt;UsersModule</title>
<path fill="none" stroke="black" d="M817,-198.15C817,-210.27 817,-224 817,-224 817,-224 1722.17,-224 1722.17,-224 1722.17,-224 1722.17,-227.76 1722.17,-227.76"/>
<polygon fill="black" stroke="black" points="1718.67,-227.76 1722.17,-237.76 1725.67,-227.76 1718.67,-227.76"/>
</g>
<!-- FindOneUserByEmailProvider -->
<g id="node33" class="node">
<title>FindOneUserByEmailProvider</title>
<ellipse fill="#fdb462" stroke="black" cx="543" cy="-180" rx="130.8" ry="18"/>
<text text-anchor="middle" x="543" y="-175.8" font-family="Times,serif" font-size="14.00">FindOneUserByEmailProvider</text>
</g>
<!-- FindOneUserByEmailProvider&#45;&gt;UsersModule -->
<g id="edge36" class="edge">
<title>FindOneUserByEmailProvider&#45;&gt;UsersModule</title>
<path fill="none" stroke="black" d="M543,-198.15C543,-211.74 543,-228 543,-228 543,-228 1712.45,-228 1712.45,-228 1712.45,-228 1712.45,-228.98 1712.45,-228.98"/>
<polygon fill="black" stroke="black" points="1708.95,-227.79 1712.45,-237.79 1715.95,-227.79 1708.95,-227.79"/>
</g>
<!-- UsersCreateManyProvider -->
<g id="node34" class="node">
<title>UsersCreateManyProvider</title>
<ellipse fill="#fdb462" stroke="black" cx="280" cy="-180" rx="114" ry="18"/>
<text text-anchor="middle" x="280" y="-175.8" font-family="Times,serif" font-size="14.00">UsersCreateManyProvider</text>
</g>
<!-- UsersCreateManyProvider&#45;&gt;UsersModule -->
<g id="edge37" class="edge">
<title>UsersCreateManyProvider&#45;&gt;UsersModule</title>
<path fill="none" stroke="black" d="M280,-198.12C280,-212.78 280,-231 280,-231 280,-231 1702.73,-231 1702.73,-231 1702.73,-231 1702.73,-231.68 1702.73,-231.68"/>
<polygon fill="black" stroke="black" points="1699.23,-227.83 1702.73,-237.83 1706.23,-227.83 1699.23,-227.83"/>
</g>
<!-- UsersService -->
<g id="node35" class="node">
<title>UsersService</title>
<ellipse fill="#fdb462" stroke="black" cx="86" cy="-180" rx="61.95" ry="18"/>
<text text-anchor="middle" x="86" y="-175.8" font-family="Times,serif" font-size="14.00">UsersService</text>
</g>
<!-- UsersService&#45;&gt;UsersModule -->
<g id="edge38" class="edge">
<title>UsersService&#45;&gt;UsersModule</title>
<path fill="none" stroke="black" d="M86,-198.01C86,-214.05 86,-235 86,-235 86,-235 1693.01,-235 1693.01,-235 1693.01,-235 1693.01,-235.29 1693.01,-235.29"/>
<polygon fill="black" stroke="black" points="1689.51,-227.92 1693.01,-237.92 1696.51,-227.92 1689.51,-227.92"/>
</g>
</g>
</svg>
